<svg width="129" height="39" viewBox="0 0 129 39" fill="none" xmlns="http://www.w3.org/2000/svg">
<path d="M15.9045 2.88143C16.2763 2.33033 16.8977 2 17.5625 2H33.8188C35.4212 2 36.373 3.79023 35.4768 5.11857L22.6763 24.0915C22.3045 24.6426 21.6831 24.9729 21.0183 24.9729H4.76197C3.15957 24.9729 2.20782 23.1827 3.10402 21.8543L15.9045 2.88143Z" fill="#34D399"/>
<path d="M17.954 27.102C17.6216 27.102 17.311 27.2672 17.1251 27.5427L12.4712 34.4407C12.0231 35.1049 12.499 36 13.3002 36H32.9692C33.3015 36 33.6122 35.8348 33.7981 35.5593L47.948 14.5864C48.3961 13.9222 47.9202 13.0271 47.119 13.0271H33.234C32.9016 13.0271 32.591 13.1923 32.4051 13.4678L23.5037 26.6613C23.3178 26.9368 23.0072 27.102 22.6748 27.102H17.954Z" fill="#374151"/>
<path d="M66.2074 15.3438C66.1278 14.5994 65.7926 14.0199 65.2017 13.6051C64.6165 13.1903 63.8551 12.983 62.9176 12.983C62.2585 12.983 61.6932 13.0824 61.2216 13.2812C60.75 13.4801 60.3892 13.75 60.1392 14.0909C59.8892 14.4318 59.7614 14.821 59.7557 15.2585C59.7557 15.6222 59.8381 15.9375 60.0028 16.2045C60.1733 16.4716 60.4034 16.6989 60.6932 16.8864C60.983 17.0682 61.304 17.2216 61.6562 17.3466C62.0085 17.4716 62.3636 17.5767 62.7216 17.6619L64.358 18.071C65.017 18.2244 65.6506 18.4318 66.2585 18.6932C66.8722 18.9545 67.4205 19.2841 67.9034 19.6818C68.392 20.0795 68.7784 20.5597 69.0625 21.1222C69.3466 21.6847 69.4886 22.3437 69.4886 23.0994C69.4886 24.1222 69.2273 25.0227 68.7045 25.8011C68.1818 26.5739 67.4261 27.179 66.4375 27.6165C65.4545 28.0483 64.2642 28.2642 62.8665 28.2642C61.5085 28.2642 60.3295 28.054 59.3295 27.6335C58.3352 27.2131 57.5568 26.5994 56.9943 25.7926C56.4375 24.9858 56.1364 24.0028 56.0909 22.8438H59.2017C59.2472 23.4517 59.4347 23.9574 59.7642 24.3608C60.0938 24.7642 60.5227 25.0653 61.0511 25.2642C61.5852 25.4631 62.1818 25.5625 62.8409 25.5625C63.5284 25.5625 64.1307 25.4602 64.6477 25.2557C65.1705 25.0455 65.5795 24.7557 65.875 24.3864C66.1705 24.0114 66.321 23.5739 66.3267 23.0739C66.321 22.6193 66.1875 22.2443 65.9261 21.9489C65.6648 21.6477 65.2983 21.3977 64.8267 21.1989C64.3608 20.9943 63.8153 20.8125 63.1903 20.6534L61.2045 20.142C59.767 19.7727 58.6307 19.2131 57.7955 18.4631C56.9659 17.7074 56.5511 16.7045 56.5511 15.4545C56.5511 14.4261 56.8295 13.5256 57.3864 12.7528C57.9489 11.9801 58.7131 11.3807 59.679 10.9545C60.6449 10.5227 61.7386 10.3068 62.9602 10.3068C64.1989 10.3068 65.2841 10.5227 66.2159 10.9545C67.1534 11.3807 67.8892 11.9744 68.4233 12.7358C68.9574 13.4915 69.233 14.3608 69.25 15.3438H66.2074ZM72.1712 28V14.9091H75.2564V28H72.1712ZM73.7223 13.0511C73.2337 13.0511 72.8132 12.8892 72.4609 12.5653C72.1087 12.2358 71.9325 11.8409 71.9325 11.3807C71.9325 10.9148 72.1087 10.5199 72.4609 10.196C72.8132 9.86648 73.2337 9.7017 73.7223 9.7017C74.2166 9.7017 74.6371 9.86648 74.9837 10.196C75.3359 10.5199 75.5121 10.9148 75.5121 11.3807C75.5121 11.8409 75.3359 12.2358 74.9837 12.5653C74.6371 12.8892 74.2166 13.0511 73.7223 13.0511ZM83.2869 28.2301C82.2585 28.2301 81.3381 27.9659 80.5256 27.4375C79.7131 26.9091 79.071 26.142 78.5994 25.1364C78.1278 24.1307 77.892 22.9091 77.892 21.4716C77.892 20.017 78.1307 18.7898 78.608 17.7898C79.0909 16.7841 79.7415 16.0256 80.5597 15.5142C81.3778 14.9972 82.2898 14.7386 83.2955 14.7386C84.0625 14.7386 84.6932 14.8693 85.1875 15.1307C85.6818 15.3864 86.0739 15.696 86.3636 16.0597C86.6534 16.4176 86.8778 16.7557 87.0369 17.0739H87.1648V10.5455H90.2585V28H87.2244V25.9375H87.0369C86.8778 26.2557 86.6477 26.5937 86.3466 26.9517C86.0455 27.304 85.6477 27.6051 85.1534 27.8551C84.6591 28.1051 84.0369 28.2301 83.2869 28.2301ZM84.1477 25.6989C84.8011 25.6989 85.358 25.5227 85.8182 25.1705C86.2784 24.8125 86.6278 24.3153 86.8665 23.679C87.1051 23.0426 87.2244 22.3011 87.2244 21.4545C87.2244 20.608 87.1051 19.8722 86.8665 19.2472C86.6335 18.6222 86.2869 18.1364 85.8267 17.7898C85.3722 17.4432 84.8125 17.2699 84.1477 17.2699C83.4602 17.2699 82.8864 17.4489 82.4261 17.8068C81.9659 18.1648 81.6193 18.6591 81.3864 19.2898C81.1534 19.9205 81.0369 20.642 81.0369 21.4545C81.0369 22.2727 81.1534 23.0028 81.3864 23.6449C81.625 24.2812 81.9744 24.7841 82.4347 25.1534C82.9006 25.517 83.4716 25.6989 84.1477 25.6989ZM97.3132 28.2642C96.4837 28.2642 95.7365 28.1165 95.0717 27.821C94.4126 27.5199 93.8899 27.0767 93.5036 26.4915C93.1229 25.9062 92.9325 25.1847 92.9325 24.3267C92.9325 23.5881 93.0689 22.9773 93.3416 22.4943C93.6143 22.0114 93.9865 21.625 94.4581 21.3352C94.9297 21.0455 95.4609 20.8267 96.0518 20.679C96.6484 20.5256 97.2649 20.4148 97.9013 20.3466C98.6683 20.267 99.2905 20.196 99.7678 20.1335C100.245 20.0653 100.592 19.9631 100.808 19.8267C101.029 19.6847 101.14 19.4659 101.14 19.1705V19.1193C101.14 18.4773 100.95 17.9801 100.569 17.6278C100.188 17.2756 99.6399 17.0994 98.924 17.0994C98.1683 17.0994 97.5689 17.2642 97.1257 17.5938C96.6882 17.9233 96.3928 18.3125 96.2393 18.7614L93.3587 18.3523C93.5859 17.5568 93.9609 16.892 94.4837 16.358C95.0064 15.8182 95.6456 15.4148 96.4013 15.1477C97.157 14.875 97.9922 14.7386 98.907 14.7386C99.5376 14.7386 100.165 14.8125 100.79 14.9602C101.415 15.108 101.987 15.3523 102.504 15.6932C103.021 16.0284 103.435 16.4858 103.748 17.0653C104.066 17.6449 104.225 18.3693 104.225 19.2386V28H101.259V26.2017H101.157C100.969 26.5653 100.705 26.9062 100.364 27.2244C100.029 27.5369 99.6058 27.7898 99.0945 27.983C98.5888 28.1705 97.995 28.2642 97.3132 28.2642ZM98.1143 25.9972C98.7337 25.9972 99.2706 25.875 99.7251 25.6307C100.18 25.3807 100.529 25.0511 100.773 24.642C101.023 24.233 101.148 23.7869 101.148 23.304V21.7614C101.052 21.8409 100.887 21.9148 100.654 21.983C100.427 22.0511 100.171 22.1108 99.8871 22.1619C99.603 22.2131 99.3217 22.2585 99.0433 22.2983C98.7649 22.3381 98.5234 22.3722 98.3189 22.4006C97.8587 22.4631 97.4467 22.5653 97.0831 22.7074C96.7195 22.8494 96.4325 23.0483 96.2223 23.304C96.0121 23.554 95.907 23.8778 95.907 24.2756C95.907 24.8438 96.1143 25.2727 96.5291 25.5625C96.9439 25.8523 97.4723 25.9972 98.1143 25.9972ZM113.864 14.9091V17.2955H106.339V14.9091H113.864ZM108.197 11.7727H111.282V24.0625C111.282 24.4773 111.344 24.7955 111.469 25.017C111.6 25.233 111.771 25.3807 111.981 25.4602C112.191 25.5398 112.424 25.5795 112.68 25.5795C112.873 25.5795 113.049 25.5653 113.208 25.5369C113.373 25.5085 113.498 25.483 113.583 25.4602L114.103 27.8722C113.938 27.929 113.702 27.9915 113.396 28.0597C113.094 28.1278 112.725 28.1676 112.288 28.179C111.515 28.2017 110.819 28.0852 110.2 27.8295C109.58 27.5682 109.089 27.1648 108.725 26.6193C108.367 26.0739 108.191 25.392 108.197 24.5739V11.7727ZM120.212 28.2642C119.382 28.2642 118.635 28.1165 117.97 27.821C117.311 27.5199 116.788 27.0767 116.402 26.4915C116.021 25.9062 115.831 25.1847 115.831 24.3267C115.831 23.5881 115.967 22.9773 116.24 22.4943C116.513 22.0114 116.885 21.625 117.357 21.3352C117.828 21.0455 118.359 20.8267 118.95 20.679C119.547 20.5256 120.163 20.4148 120.8 20.3466C121.567 20.267 122.189 20.196 122.666 20.1335C123.143 20.0653 123.49 19.9631 123.706 19.8267C123.928 19.6847 124.038 19.4659 124.038 19.1705V19.1193C124.038 18.4773 123.848 17.9801 123.467 17.6278C123.087 17.2756 122.538 17.0994 121.822 17.0994C121.067 17.0994 120.467 17.2642 120.024 17.5938C119.587 17.9233 119.291 18.3125 119.138 18.7614L116.257 18.3523C116.484 17.5568 116.859 16.892 117.382 16.358C117.905 15.8182 118.544 15.4148 119.3 15.1477C120.055 14.875 120.891 14.7386 121.805 14.7386C122.436 14.7386 123.064 14.8125 123.689 14.9602C124.314 15.108 124.885 15.3523 125.402 15.6932C125.919 16.0284 126.334 16.4858 126.646 17.0653C126.964 17.6449 127.124 18.3693 127.124 19.2386V28H124.158V26.2017H124.055C123.868 26.5653 123.604 26.9062 123.263 27.2244C122.928 27.5369 122.504 27.7898 121.993 27.983C121.487 28.1705 120.893 28.2642 120.212 28.2642ZM121.013 25.9972C121.632 25.9972 122.169 25.875 122.624 25.6307C123.078 25.3807 123.428 25.0511 123.672 24.642C123.922 24.233 124.047 23.7869 124.047 23.304V21.7614C123.95 21.8409 123.786 21.9148 123.553 21.983C123.325 22.0511 123.07 22.1108 122.786 22.1619C122.501 22.2131 122.22 22.2585 121.942 22.2983C121.663 22.3381 121.422 22.3722 121.217 22.4006C120.757 22.4631 120.345 22.5653 119.982 22.7074C119.618 22.8494 119.331 23.0483 119.121 23.304C118.911 23.554 118.805 23.8778 118.805 24.2756C118.805 24.8438 119.013 25.2727 119.428 25.5625C119.842 25.8523 120.371 25.9972 121.013 25.9972Z" fill="#374151"/>
</svg>
