<svg width="51" height="39" viewBox="0 0 51 39" fill="none" xmlns="http://www.w3.org/2000/svg">
<path d="M16.4045 2.88143C16.7763 2.33033 17.3977 2 18.0625 2H34.3188C35.9212 2 36.873 3.79023 35.9768 5.11857L23.1763 24.0915C22.8045 24.6426 22.1831 24.9729 21.5183 24.9729H5.26197C3.65957 24.9729 2.70782 23.1827 3.60402 21.8543L16.4045 2.88143Z" fill="#34D399"/>
<path d="M18.4538 27.102C18.1214 27.102 17.8107 27.2672 17.6248 27.5427L12.9709 34.4407C12.5228 35.1049 12.9987 36 13.7999 36H33.4689C33.8013 36 34.112 35.8348 34.2979 35.5593L48.4477 14.5864C48.8958 13.9222 48.42 13.0271 47.6188 13.0271H33.7338C33.4014 13.0271 33.0907 13.1923 32.9048 13.4678L24.0035 26.6613C23.8176 26.9368 23.5069 27.102 23.1745 27.102H18.4538Z" fill="#F2F2F2"/>
</svg>
