<svg width="16" height="16" viewBox="0 0 16 16" fill="none" xmlns="http://www.w3.org/2000/svg">
<path d="M13.3415 4.92881L5.80874 1.16241C0.748739 -1.37199 -1.32806 0.704806 1.20634 5.76481L1.97194 7.29601C2.19194 7.74481 2.19194 8.26401 1.97194 8.71281L1.20634 10.2352C-1.32806 15.2952 0.739939 17.372 5.80874 14.8376L13.3415 11.0712C16.7207 9.38161 16.7207 6.61841 13.3415 4.92881ZM10.4991 8.66001H5.74714C5.38634 8.66001 5.08714 8.36081 5.08714 8.00001C5.08714 7.63921 5.38634 7.34001 5.74714 7.34001H10.4991C10.8599 7.34001 11.1591 7.63921 11.1591 8.00001C11.1591 8.36081 10.8599 8.66001 10.4991 8.66001Z" fill="#DADDE7"/>
</svg>
